HIERARCHY
ROOT Hips
{
	OFFSET 0.000000 0.000000 0.000000
	CHANNELS 6 Xposition Yposition Zposition Zrotation Yrotation Xrotation 
	JOINT LeftUpLeg_virtual
	{
		OFFSET 0.000000 0.000000 0.000000
		CHANNELS 3 Zrotation Yrotation Xrotation
		JOINT LeftUpLeg
		{
			OFFSET 8.479694 -4.795517 -0.379053
			CHANNELS 3 Zrotation Yrotation Xrotation
			JOINT LeftLeg
			{
				OFFSET 0.485052 -32.551468 0.112863
				CHANNELS 3 Zrotation Yrotation Xrotation
				JOINT LeftFoot
				{
					OFFSET 0.438033 -32.635670 -3.012641
					CHANNELS 3 Zrotation Yrotation Xrotation
					JOINT LeftToeBase
					{
						OFFSET 0.970169 -13.225353 11.864223
						CHANNELS 3 Zrotation Yrotation Xrotation
						End Site
						{
							OFFSET 0.000000 0.000000 0.000000
						}
					}
				}
			}
		}
	}
	JOINT RightUpLeg_virtual
	{
		OFFSET 0.000000 0.000000 0.000000
		CHANNELS 3 Zrotation Yrotation Xrotation
		JOINT RightUpLeg
		{
			OFFSET -8.479694 -4.795517 -0.379053
			CHANNELS 3 Zrotation Yrotation Xrotation
			JOINT RightLeg
			{
				OFFSET -0.484100 -32.551483 0.112903
				CHANNELS 3 Zrotation Yrotation Xrotation
				JOINT RightFoot
				{
					OFFSET -0.438985 -32.635651 -3.012681
					CHANNELS 3 Zrotation Yrotation Xrotation
					JOINT RightToeBase
					{
						OFFSET -0.970169 -13.225354 11.864223
						CHANNELS 3 Zrotation Yrotation Xrotation
						End Site
						{
							OFFSET 0.000000 0.000000 0.000000
						}
					}
				}
			}
		}
	}
	JOINT Spine_virtual
	{
		OFFSET 0.000000 0.000000 0.000000
		CHANNELS 3 Zrotation Yrotation Xrotation
		JOINT Spine
		{
			OFFSET 0.000000 7.722015 1.166203
			CHANNELS 3 Zrotation Yrotation Xrotation
			JOINT Spine1
			{
				OFFSET 0.000000 12.024086 0.248766
				CHANNELS 3 Zrotation Yrotation Xrotation
				JOINT Spine2
				{
					OFFSET -0.000000 11.503036 -0.491240
					CHANNELS 3 Zrotation Yrotation Xrotation
					JOINT Neck_virtual
					{
						OFFSET 0.000000 0.000000 0.000000
						CHANNELS 3 Zrotation Yrotation Xrotation
						JOINT Neck
						{
							OFFSET 0.000000 18.430687 -3.123054
							CHANNELS 3 Zrotation Yrotation Xrotation
							JOINT Head
							{
								OFFSET -0.000000 9.051071 1.034021
								CHANNELS 3 Zrotation Yrotation Xrotation
								End Site
								{
									OFFSET 0.000000 0.000000 0.000000
								}
							}
						}
					}
					JOINT LeftShoulder_virtual
					{
						OFFSET 0.000000 0.000000 0.000000
						CHANNELS 3 Zrotation Yrotation Xrotation
						JOINT LeftShoulder
						{
							OFFSET 6.197824 13.665230 -4.064723
							CHANNELS 3 Zrotation Yrotation Xrotation
							JOINT LeftArm
							{
								OFFSET 7.778132 -0.187073 -1.709282
								CHANNELS 3 Zrotation Yrotation Xrotation
								JOINT LeftForeArm
								{
									OFFSET 21.954697 0.000000 -2.041093
									CHANNELS 3 Zrotation Yrotation Xrotation
									JOINT LeftHand
									{
										OFFSET 22.992908 0.000000 -0.870901
										CHANNELS 3 Zrotation Yrotation Xrotation
										End Site
										{
											OFFSET 0.000000 0.000000 0.000000
										}
									}
								}
							}
						}
					}
					JOINT RightShoulder_virtual
					{
						OFFSET 0.000000 0.000000 0.000000
						CHANNELS 3 Zrotation Yrotation Xrotation
						JOINT RightShoulder
						{
							OFFSET -6.197824 13.665230 -4.064723
							CHANNELS 3 Zrotation Yrotation Xrotation
							JOINT RightArm
							{
								OFFSET -7.778132 -0.187073 -1.709282
								CHANNELS 3 Zrotation Yrotation Xrotation
								JOINT RightForeArm
								{
									OFFSET -21.954697 0.000000 -2.041093
									CHANNELS 3 Zrotation Yrotation Xrotation
									JOINT RightHand
									{
										OFFSET -22.992908 0.000000 -0.870901
										CHANNELS 3 Zrotation Yrotation Xrotation
										End Site
										{
											OFFSET 0.000000 0.000000 0.000000
										}
									}
								}
							}
						}
					}
				}
			}
		}
	}
}
MOTION
Frames: 9
Frame Time: 0.033333
-10.563717 80.857292 -46.543091 179.795045 0.744731 179.728177 -2.116102 -0.228969 9.661852 -2.485143 -1.795977 -23.648441 9.987044 6.261281 33.346005 -1.411448 -7.377474 -15.016880 0.000000 0.000000 0.000000 -1.520204 -1.558504 11.055422 -2.593373 1.557964 -20.459005 -1.550534 2.967890 31.584010 10.413633 2.717359 -14.081087 0.000000 0.000000 0.000000 2.879221 2.035200 -2.961116 -4.723859 0.221946 0.176905 -0.063907 -2.927791 4.021977 0.033025 -0.036423 -0.049282 -0.163829 -1.964523 5.422283 -0.535432 -0.831792 -6.463495 0.000000 0.000000 0.000000 1.456952 -1.150137 2.324167 -1.055287 8.707316 -6.009267 7.957471 -13.060158 -52.143460 -1.058455 -28.596124 -4.664458 0.000000 0.000000 0.000000 -2.705600 0.085259 1.677193 19.376314 -13.693337 -17.019488 -4.597216 9.547010 -56.810744 1.867878 15.027705 4.686961 0.000000 0.000000 0.000000 
-10.417006 80.864029 -46.645557 179.714845 0.948996 179.646734 -2.054048 -0.187016 9.517718 -2.424499 -1.801556 -23.824530 10.056298 6.711612 33.372075 -0.906158 -6.957137 -15.466741 0.000000 0.000000 0.000000 -1.551420 -1.618411 10.942065 -2.359885 1.039308 -20.459507 -1.513699 2.596131 31.649300 10.334022 2.636483 -14.557657 0.000000 0.000000 0.000000 2.837585 2.059053 -2.948588 -4.789572 0.260172 0.263455 -0.099113 -2.887032 4.079187 0.019151 -0.007139 -0.056698 -0.164756 -1.969554 5.367070 -0.496202 -0.871340 -6.536996 0.000000 0.000000 0.000000 1.470526 -1.242484 2.278981 -1.030169 8.652207 -6.021879 7.920871 -12.960938 -52.094816 -1.062173 -28.629710 -4.587602 0.000000 0.000000 0.000000 -2.727864 0.061620 1.613118 19.469756 -13.774193 -16.979253 -4.553023 9.518517 -56.736879 1.851742 15.148506 4.658233 0.000000 0.000000 0.000000 
-10.217340 80.860268 -46.784401 179.754077 1.103219 179.642977 -1.790540 -0.166391 9.493085 -2.467603 -1.849209 -23.833861 10.081801 6.670990 33.591977 -0.940021 -7.082742 -15.567830 0.000000 0.000000 0.000000 -1.503811 -1.623810 10.878115 -2.209245 0.978728 -20.331649 -1.482748 2.598638 31.751231 10.293624 2.633316 -14.642746 0.000000 0.000000 0.000000 2.849791 2.017067 -2.956014 -4.836454 0.229669 0.236342 -0.095632 -2.904475 4.076789 0.028851 -0.031199 -0.080143 -0.197715 -1.986578 5.449247 -0.493263 -0.874571 -6.503021 0.000000 0.000000 0.000000 1.464473 -1.240719 2.310605 -1.059378 8.771212 -5.986675 7.858035 -12.999431 -52.072993 -0.993518 -28.616068 -4.578816 0.000000 0.000000 0.000000 -2.731839 0.049512 1.712588 19.566842 -13.706911 -17.245232 -4.553994 9.613466 -56.708370 1.961431 15.132171 4.643015 0.000000 0.000000 0.000000 
-9.996938 80.859032 -46.920368 179.607037 1.174936 179.679355 -1.984590 -0.166474 9.470013 -2.109044 -1.791419 -23.876827 10.079008 6.870172 33.888417 -1.162805 -7.282476 -15.670628 0.000000 0.000000 0.000000 -1.622096 -1.667976 10.804134 -2.041439 0.917026 -20.246264 -1.462717 2.643470 31.945351 10.195020 2.584293 -14.716063 0.000000 0.000000 0.000000 2.762641 1.992097 -3.009044 -4.978216 0.239907 0.167857 -0.117645 -2.852824 4.108398 0.037584 -0.003328 -0.075835 -0.147699 -1.939724 5.459195 -0.446472 -0.929669 -6.556106 0.000000 0.000000 0.000000 1.469600 -1.110412 2.413908 -1.081423 8.517777 -5.973925 7.747083 -12.979865 -51.989928 -0.880752 -28.623578 -4.568469 0.000000 0.000000 0.000000 -2.658048 0.044803 1.696217 19.643146 -13.813910 -17.212712 -4.506806 9.656298 -56.681640 1.948394 14.994888 4.576301 0.000000 0.000000 0.000000 
-9.771152 80.859772 -47.026199 179.797695 1.214126 179.676869 -1.313402 -0.166735 9.496908 -2.449308 -1.900463 -23.919698 10.089302 6.756550 34.100607 -1.196436 -7.392309 -15.701227 0.000000 0.000000 0.000000 -1.480901 -1.743852 10.747619 -1.805185 0.907689 -20.169122 -1.405594 2.681223 32.057609 10.065295 2.511534 -14.756339 0.000000 0.000000 0.000000 2.901652 1.932798 -3.009288 -4.938406 0.221984 0.066517 -0.093659 -2.843403 4.091578 0.017662 -0.029232 -0.105157 -0.180965 -1.922962 5.500250 -0.377247 -0.917327 -6.513901 0.000000 0.000000 0.000000 1.455598 -1.086201 2.397314 -1.067756 8.423105 -5.908837 7.449023 -12.932010 -51.856770 -0.828658 -28.703761 -4.522851 0.000000 0.000000 0.000000 -2.691005 0.052920 1.736694 19.728086 -13.850171 -17.409867 -4.513881 9.690077 -56.839243 2.048001 14.765937 4.330652 0.000000 0.000000 0.000000 
-9.511687 80.872932 -47.070114 179.704968 1.268695 179.663427 -1.711655 -0.129042 9.550375 -1.795064 -1.752629 -24.069766 10.055779 6.831019 34.422012 -1.404145 -7.572756 -15.765892 0.000000 0.000000 0.000000 -1.569508 -1.751046 10.712579 -1.602223 0.787022 -20.068907 -1.361074 2.699130 32.050086 9.960808 2.475856 -14.797484 0.000000 0.000000 0.000000 2.895934 1.942181 -2.964920 -4.996877 0.266348 -0.017528 -0.095430 -2.758452 4.123024 0.037271 0.008969 -0.042572 -0.165082 -1.884457 5.450762 -0.256990 -0.974380 -6.520500 0.000000 0.000000 0.000000 1.456846 -1.087467 2.359524 -1.065601 8.192534 -5.809248 7.235880 -12.921436 -51.793820 -0.757018 -28.778934 -4.493698 0.000000 0.000000 0.000000 -2.679636 0.074516 1.660340 19.793595 -13.987766 -17.277667 -4.546356 9.771865 -56.865515 1.989583 14.556040 4.235132 0.000000 0.000000 0.000000 
-9.227935 80.895576 -47.064407 179.756823 1.065709 179.740854 -1.666814 -0.212539 9.584298 -1.547698 -1.710289 -24.310829 10.044630 6.654152 34.648378 -1.558648 -7.705047 -15.713117 0.000000 0.000000 0.000000 -1.478102 -1.879067 10.636076 -1.355288 0.484816 -20.067359 -1.297515 2.646481 32.024892 9.840483 2.452486 -14.810630 0.000000 0.000000 0.000000 2.950925 1.895770 -2.940208 -4.981514 0.215200 -0.122800 -0.086178 -2.744126 4.117098 0.031245 -0.008998 -0.062362 -0.174070 -1.875623 5.484205 -0.122727 -1.025091 -6.614291 0.000000 0.000000 0.000000 1.456304 -1.009070 2.415977 -1.079682 8.055841 -5.782746 7.084952 -13.043136 -51.803044 -0.607846 -28.746415 -4.549349 0.000000 0.000000 0.000000 -2.686719 0.109096 1.687964 19.849103 -14.021067 -17.449970 -4.548170 9.725744 -56.976171 2.068557 14.353958 4.198907 0.000000 0.000000 0.000000 
-8.903564 80.920425 -47.000492 179.709066 1.016443 179.722727 -2.099333 -0.163453 9.640014 -0.811042 -1.597623 -24.603834 10.021669 6.573007 35.023492 -1.806955 -7.845929 -15.696142 0.000000 0.000000 0.000000 -1.516251 -1.866159 10.601207 -1.105872 0.196746 -20.040120 -1.217626 2.580941 32.014804 9.737744 2.449942 -14.789479 0.000000 0.000000 0.000000 2.933666 1.969335 -2.845566 -5.004271 0.245284 -0.149808 -0.112245 -2.666090 4.129122 -0.000829 0.008426 -0.049966 -0.113879 -1.720586 5.390060 0.061705 -1.117458 -6.665918 0.000000 0.000000 0.000000 1.503684 -0.960644 2.413600 -1.048162 7.865542 -5.746840 6.899572 -13.298212 -51.925202 -0.520093 -28.704389 -4.610281 0.000000 0.000000 0.000000 -2.633662 0.192983 1.619114 19.973285 -14.048553 -17.345800 -4.627818 9.679611 -57.198487 2.097188 14.216609 3.996234 0.000000 0.000000 0.000000 
-8.571033 80.939491 -46.866810 179.826436 0.844711 179.730267 -2.056159 -0.134263 9.658928 -0.438334 -1.601359 -24.925561 9.953043 6.315036 35.314984 -2.039303 -7.881593 -15.570186 0.000000 0.000000 0.000000 -1.393415 -1.899352 10.548999 -0.828529 -0.200600 -20.070600 -1.187430 2.517360 32.036077 9.596359 2.432810 -14.775907 0.000000 0.000000 0.000000 2.972263 2.011966 -2.719969 -4.996062 0.218498 -0.128889 -0.100627 -2.642921 4.136977 0.016742 -0.011473 -0.087046 -0.179302 -1.774599 5.372791 0.220078 -1.177912 -6.788012 0.000000 0.000000 0.000000 1.462128 -0.926402 2.407056 -1.002713 7.720544 -5.851039 6.644371 -13.425804 -52.064797 -0.410082 -28.671768 -4.662624 0.000000 0.000000 0.000000 -2.697688 0.196360 1.654192 20.064874 -14.080279 -17.508001 -4.562626 9.609601 -57.498602 2.207029 14.144283 3.921184 0.000000 0.000000 0.000000 
